<?xml version="1.0" encoding="UTF-8"?>
<!DOCTYPE svg PUBLIC "-//W3C//DTD SVG 1.1//EN" "http://www.w3.org/Graphics/SVG/1.1/DTD/svg11.dtd">
<!-- Creator: CorelDRAW 2020 (64-Bit) -->
<svg xmlns="http://www.w3.org/2000/svg" xml:space="preserve" width="2.09327in" height="0.244398in" version="1.1" style="shape-rendering:geometricPrecision; text-rendering:geometricPrecision; image-rendering:optimizeQuality; fill-rule:evenodd; clip-rule:evenodd"
viewBox="0 0 1857.76 216.9"
 xmlns:xlink="http://www.w3.org/1999/xlink"
 xmlns:xodm="http://www.corel.com/coreldraw/odm/2003">
 <defs>
  <style type="text/css">
   <![CDATA[
    .str0 {stroke:#B1361E;stroke-width:2.66;stroke-miterlimit:2.61313}
    .fil1 {fill:#AE3424}
    .fil9 {fill:#CE887C}
    .fil5 {fill:#D39287}
    .fil10 {fill:#D4978C}
    .fil3 {fill:#D5988E}
    .fil4 {fill:#D79B91}
    .fil7 {fill:#D79C93}
    .fil8 {fill:#D9A399}
    .fil6 {fill:#DBA89F}
    .fil2 {fill:white}
    .fil0 {fill:#B1361E;fill-rule:nonzero}
   ]]>
  </style>
 </defs>
 <g id="Layer_x0020_1">
  <metadata id="CorelCorpID_0Corel-Layer"/>
  <path class="fil0 str0" d="M398.36 204.63c-15.1,7.3 -34.86,10.94 -59.2,10.94 -31.76,0 -56.75,-9.31 -74.95,-28 -18.25,-18.69 -27.31,-43.59 -27.31,-74.7 0,-33.14 10.21,-60.01 30.66,-80.62 20.46,-20.61 47.03,-30.91 79.68,-30.91 20.21,0 37.27,2.57 51.12,7.68l0 44.91c-13.85,-8.28 -29.64,-12.42 -47.39,-12.42 -19.43,0 -35.15,6.12 -47.08,18.33 -11.93,12.24 -17.89,28.79 -17.89,49.69 0,20.01 5.63,36 16.9,47.88 11.23,11.88 26.42,17.84 45.51,17.84 18.2,0 34.86,-4.44 49.94,-13.31l0 42.66 0 0.02zm120.06 10.94c-29.68,0 -53.84,-9.67 -72.54,-28.94 -18.69,-19.34 -28,-44.47 -28,-75.49 0,-32.74 9.47,-59.22 28.45,-79.44 18.98,-20.21 44.08,-30.37 75.39,-30.37 29.59,0 53.49,9.71 71.73,29.03 18.25,19.38 27.36,44.91 27.36,76.58 0,32.54 -9.47,58.82 -28.41,78.75 -18.89,19.92 -43.59,29.88 -74.01,29.88l0.02 0zm2.01 -174.04c-16.37,0 -29.39,6.12 -38.99,18.45 -9.6,12.28 -14.45,28.5 -14.45,48.71 0,20.5 4.83,36.74 14.45,48.71 9.63,11.93 22.24,17.89 37.81,17.89 16.13,0 28.85,-5.81 38.3,-17.4 9.42,-11.64 14.16,-27.71 14.16,-48.33 0,-21.51 -4.58,-38.21 -13.71,-50.14 -9.18,-11.93 -21.68,-17.89 -37.56,-17.89zm134.76 170.44l0 -207.13 73.41 0c73.56,0 110.35,33.63 110.35,100.99 0,32.25 -10.05,57.98 -30.13,77.27 -20.08,19.27 -46.79,28.9 -80.22,28.9l-73.41 0 0 -0.02zm46.7 -169.17l0 131.29 23.11 0c20.21,0 36.04,-6.08 47.57,-18.2 11.48,-12.13 17.26,-28.65 17.26,-49.56 0,-19.72 -5.72,-35.26 -17.11,-46.54 -11.43,-11.35 -27.4,-17.02 -48.02,-17.02l-22.82 0 0 0.02zm295.68 169.17l-124.26 0 0 -207.13 119.46 0 0 37.97 -72.78 0 0 46.09 67.74 0 0 37.81 -67.74 0 0 47.39 77.56 0 0 37.85 0.02 0.02zm310.13 -207.13l-54.78 207.13 -51.72 0 -34.37 -132.88c-1.83,-6.95 -2.9,-14.7 -3.31,-23.27l-0.58 0c-0.89,9.42 -2.12,17.22 -3.75,23.27l-35.26 132.88 -53.89 0 -54.42 -207.13 50.99 0 29.19 137.95c1.23,5.87 2.17,13.76 2.7,23.67l0.89 0c0.4,-7.39 1.76,-15.48 4.2,-24.25l37.56 -137.37 49.96 0 33.97 139.09c1.23,5.14 2.37,12.53 3.31,22.24l0.58 0c0.4,-7.59 1.38,-15.28 3.02,-23.07l28.65 -138.26 47.08 0zm198 207.13l-50.83 0 -14.74 -46.09 -73.65 0 -14.61 46.09 -50.58 0 75.44 -207.13 55.32 0 73.65 207.13 -0 0zm-76.26 -81.89l-22.24 -69.61c-1.63,-5.23 -2.81,-11.43 -3.5,-18.65l-1.14 0c-0.49,6.08 -1.67,12.08 -3.6,18.04l-22.53 70.21 52.99 0 0.02 0zm275.92 81.89l-53.6 0 -32.2 -53.31c-2.41,-4.04 -4.73,-7.64 -6.95,-10.85 -2.21,-3.15 -4.44,-5.87 -6.7,-8.13 -2.28,-2.28 -4.62,-4 -7.1,-5.23 -2.46,-1.18 -5.14,-1.76 -7.99,-1.76l-12.57 0 0 79.28 -46.7 0 0 -207.13 73.97 0c50.29,0 75.44,18.78 75.44,56.3 0,7.24 -1.14,13.91 -3.35,20.01 -2.21,6.12 -5.31,11.64 -9.36,16.57 -4.04,4.89 -8.93,9.13 -14.65,12.66 -5.76,3.6 -12.13,6.37 -19.18,8.38l0 0.58c3.1,0.98 6.08,2.52 8.98,4.69 2.9,2.17 5.67,4.69 8.38,7.59 2.7,2.9 5.27,6.01 7.75,9.31 2.46,3.31 4.69,6.57 6.7,9.76l39.15 61.24 0 0.05zm-127.1 -172.16l0 57.64 20.21 0c10,0 18.04,-2.9 24.12,-8.69 6.16,-5.87 9.27,-13.16 9.27,-21.8 0,-18.13 -10.85,-27.16 -32.54,-27.16l-21.06 0 0 -0zm136.92 164.23l0 -46.25c8.38,7.06 17.51,12.33 27.31,15.84 9.8,3.5 19.72,5.27 29.72,5.27 5.92,0 11.03,-0.53 15.39,-1.59 4.4,-1.09 8.04,-2.52 10.99,-4.44 2.97,-1.88 5.14,-4.09 6.57,-6.61 1.47,-2.57 2.17,-5.31 2.17,-8.33 0,-4.04 -1.14,-7.64 -3.46,-10.79 -2.32,-3.19 -5.47,-6.16 -9.47,-8.82 -4,-2.7 -8.73,-5.31 -14.25,-7.8 -5.47,-2.5 -11.39,-5.07 -17.75,-7.68 -16.17,-6.7 -28.25,-14.94 -36.18,-24.7 -7.93,-9.71 -11.88,-21.44 -11.88,-35.2 0,-10.79 2.12,-20.08 6.45,-27.81 4.33,-7.8 10.25,-14.16 17.69,-19.18 7.51,-4.98 16.13,-8.69 25.93,-11.06 9.8,-2.37 20.21,-3.55 31.2,-3.55 10.81,0 20.37,0.69 28.7,1.96 8.28,1.27 15.97,3.31 23.03,6.01l0 43.19c-3.5,-2.41 -7.24,-4.53 -11.35,-6.37 -4.09,-1.83 -8.33,-3.35 -12.66,-4.58 -4.29,-1.18 -8.62,-2.08 -12.91,-2.66 -4.29,-0.53 -8.33,-0.85 -12.17,-0.85 -5.31,0 -10.12,0.49 -14.45,1.47 -4.33,1.03 -7.99,2.46 -10.99,4.29 -2.97,1.83 -5.27,4 -6.95,6.57 -1.63,2.57 -2.41,5.43 -2.41,8.57 0,3.5 0.89,6.61 2.7,9.31 1.83,2.77 4.44,5.38 7.84,7.84 3.35,2.41 7.44,4.83 12.28,7.19 4.78,2.37 10.25,4.78 16.32,7.3 8.28,3.46 15.68,7.15 22.29,11.06 6.61,3.89 12.28,8.33 16.95,13.22 4.73,4.94 8.33,10.54 10.85,16.86 2.52,6.25 3.75,13.6 3.75,22 0,11.59 -2.17,21.26 -6.57,29.14 -4.4,7.84 -10.32,14.2 -17.84,19.03 -7.51,4.89 -16.21,8.38 -26.17,10.5 -10,2.12 -20.5,3.15 -31.6,3.15 -11.35,0 -22.13,-0.94 -32.38,-2.86 -10.25,-1.92 -19.18,-4.83 -26.67,-8.69l-0.02 0.03z"/>
  <g id="_2420707689232">
   <path class="fil1" d="M45.47 161.83l0.25 0.76c0.13,4.97 0.38,7.19 3.14,10.29 2.01,2.26 5.31,3.95 9.79,3.79 -0.88,4.62 0.35,8.41 2.98,10.67 3.51,3.01 6.44,2.68 11,1.35 0.47,3.83 2.6,6.03 5.56,7.31 3.75,1.62 7.34,-0.17 9.57,-1.8 1.22,1.5 1.13,2.35 2.79,3.56 1.27,0.92 2.75,1.63 4.6,1.68 3.8,0.11 6.86,-2.09 7.6,-4.75 2.7,0.99 4.05,2.44 7.6,0.87 1.19,-0.53 2.93,-2.14 3.55,-3.51l0.74 -1.74c3.85,0.94 6.98,-0.41 7.74,-3.79 0.44,-0.49 0.26,-0.19 0.74,-0.48 4.4,6.45 15.63,7.53 20.55,-2.19 7.31,5.98 15.94,2.96 17.22,-6.36 2,0.06 2.59,0.85 5.26,0.25 1.7,-0.38 2.98,-1.12 3.96,-2.06 2.48,-2.37 3.37,-4.54 2.75,-9.1 3.4,-0.14 6.41,-0.6 8.26,-3.77 2.38,-4.08 0.88,-6.01 -0.26,-9.36 1.35,-0.9 1.82,-0.85 2.67,-2.02 1.53,-2.11 1.94,-5.3 0.83,-7.54 -0.69,-1.4 -1.26,-1.38 -2,-2.54 2.42,-2.98 2.61,-3.24 1.58,-7.63 3.79,-1.33 6.48,-3.48 7.94,-6.88 2.54,-5.92 -0.44,-9.54 -1.21,-11.81 3.91,-1.64 6.39,-2.94 7.32,-7.66 0.42,-2.15 0.15,-4.48 -0.75,-6.32 -1.36,-2.78 -2.71,-3.2 -3.43,-4.09 0.4,-0.65 0.2,-0.44 0.81,-1.03 0.53,-0.51 0.46,-0.3 0.85,-0.81 1.46,-1.99 1.98,-5.18 1.28,-7.67 -1.02,-3.67 -3.3,-4.77 -6.37,-6.33 1.45,-2.39 2.56,-5.06 1.06,-8.53 -1.01,-2.33 -2.87,-4.22 -6.01,-4.48 -0.9,-0.77 -1.08,-0.55 -2.35,-0.48 0.12,-1.23 0.34,-0.99 -0.26,-1.83 -0.23,-4.39 -4.49,-6.61 -9.36,-5.57 -1.9,-2.66 -0.6,-3.69 -4.95,-5 0.5,-4.53 -0.01,-6.87 -2.2,-9.95 -1.3,-1.82 -4.32,-4.27 -7.91,-4.45 -0.93,-0.49 -0.8,-0.33 -2.08,-0.33 -0.34,-0.36 -0.39,0.48 -0.26,-0.55 0.11,-2.25 0.3,-3.94 -0.48,-6.12 -1.53,-4.26 -7.06,-7.74 -13.56,-5.26 -1.07,-2.74 -2.05,-5.94 -5.87,-7.23 -3.42,-1.16 -7.53,-0.31 -9.33,2.02l-0.71 -1.08c-2.85,-5.18 -8.69,-5.34 -11.8,-2.97 -2.04,1.55 -2.07,2.49 -3.08,3.29 -4.03,-2.87 -9.77,-1.62 -11.13,4.46 -4.76,-0.83 -7.17,0.26 -8.38,4.63 -0.65,-0.76 -1.27,-1.79 -1.94,-2.3 -6.13,-4.69 -13.59,-3.7 -17.66,1.51 -0.56,0.72 -0.8,1.71 -1.51,2.41 -4.6,-5.05 -16.18,-3.92 -17.07,6.61 -9.14,-2.39 -13.51,4.86 -11.96,10.85 -4.08,0.14 -6.68,1.11 -8.25,3.84 -2.24,3.87 -1.13,5.97 0.35,9.34 -4.78,2.08 -6.08,8.43 -1.6,11.69 -1.51,2.8 -3.25,3.27 -1.61,7.75 -0.93,0.59 -1.92,0.77 -2.74,1.26 -2.44,1.45 -3.96,3.07 -5.19,5.89 -2.19,5 -0.14,8.48 1.29,11.72 -8.04,2.35 -10.84,11.88 -3.07,18.11 -2.18,1.46 -4.24,5.52 -3,9.62 0.43,1.42 1.69,3.33 2.41,3.97 1.18,1.04 2.86,1.43 3.97,2.29 -1.95,2.72 -2.64,5.59 -0.86,9.06 1.37,2.67 3.99,4.28 8.16,4.1 -0.16,5.55 4.11,9.42 9.72,7.55 0.67,2.24 1.65,4.45 4.31,4.83zm163.06 -159.99c9.13,2.62 7.6,9.52 7.6,19.16l0 134.48c0,7.52 0.71,49.62 -0.63,53.15 -3.02,7.95 -11.29,6.36 -20.21,6.36l-161.32 0c-5.55,0 -22.26,0.68 -26.5,-0.39 -3.33,-0.84 -5.72,-3.22 -6.77,-6.32 -1.02,-2.99 -0.5,-35.11 -0.5,-39.69l0 -107.58c0,-7.54 -0.74,-49.4 0.59,-53.04 3.06,-8.35 12.08,-6.47 20.08,-6.47l161.31 0c4.78,0 23.2,-0.57 26.34,0.34z"/>
   <path class="fil2" d="M114.6 161.25l0.05 1.2 3.87 0.19c2.58,0.22 5.2,2.58 6.37,4.47 0.49,0.79 0.59,1.36 1.11,2.04 2.46,-1.66 6.01,-2.61 9.66,-1.7 4.28,1.07 5.28,3.26 6.92,4.52 2.25,-3.59 6.86,-6.14 12.56,-3.84 1.56,-3.35 2.39,-8.63 11.12,-7.84 -0.3,-2.82 -0.03,-4.28 1.21,-6.39 0.95,-1.61 2.2,-2.28 4.46,-3.26 -1.03,-1.71 -1.29,-3.85 -0.59,-5.99 0.9,-2.76 1.51,-2.48 3.19,-3.96l-0.52 -0.88c-3.59,2.42 -6.57,4.97 -12.82,1.4 -1.71,2.57 -3.49,4.81 -7.58,5.14 -4.41,0.35 -6.65,-2.11 -8.55,-4.14 -2.82,3.14 -10.83,4.97 -14.16,-4.02 -2.31,1.37 -4.51,1.44 -7.1,0.08 -2.04,-1.07 -3.03,-3.48 -3.03,-6.34 -5.24,0.32 -7.64,-2.34 -7.21,-7.62 -2.49,-0.46 -3.49,-1.74 -3.56,-4.42 -2.48,0.39 -3.96,-0.03 -5.95,0.15 -0.03,0.81 -0.13,1.57 -0.5,2.19l-1.1 1.35c0.67,1.13 0.96,0.85 1.47,2.3 1.13,3.17 -0.21,5.52 -2.68,7.19 2.4,4.42 3.02,3.91 0.74,9.31 2.05,1.1 3.43,1.94 4.56,4.09 1.11,2.12 1.01,4.58 0.28,7.03 4.04,0.47 7.56,3.61 7.77,7.77zm-8.19 10.55c-4.65,-1.01 -6.23,-0.79 -8.29,-4.15 -2.24,-3.64 -1.86,-5.57 -0.62,-9.46 -3.36,-0.93 -4.99,-2.31 -6.09,-5.36 -1.67,-4.66 1.63,-7.59 2.11,-8.76 -1.06,-0.92 -3.68,-2.46 -3.39,-6.37 0.26,-3.49 1.89,-4.08 3.89,-5.61 -3.48,-5 -0.7,-9.13 2.96,-9.84 -0.84,-2.89 -0.17,-3.84 1.52,-5.41 -0.68,-1.58 -1.01,-0.6 -3.13,-5.25 -1.17,0.44 -2.36,0.28 -3.5,-0.07 -1.35,4.45 -4.47,5.17 -9.18,3.62 -1.07,4.32 -4.22,4.85 -7.59,5.08 0.29,5.71 -2.38,8.53 -7.32,9.56 2.22,5.92 -1.32,8.82 -3.87,11.26 0.92,2.59 2.08,3.3 1.81,7.08 -0.19,2.73 -1.67,4.3 -2.6,6.17 2.48,0.76 4.48,3.38 5.63,6.11 1.58,3.74 0.79,6.14 -0.25,9.63 5.23,0.43 9.1,4.13 9.47,9.39 3.15,-0.77 5.08,-1.2 7.92,0.49 1.82,1.08 3.5,2.87 4.06,5.32 4.38,-1.96 5.53,-3.69 11.48,0.42 3.55,-4.47 5.75,-3.9 9.94,-2.45l0.89 -1.9c-3.89,-1.85 -5.84,-4.9 -5.85,-9.5zm-25.55 -84.72c-5.14,3.62 -8.4,2.05 -12.1,-1.35 -1.73,1.61 -1.95,2.61 -5.09,3.33 -2.22,0.51 -5.09,0.1 -6.67,-0.97 -3.57,7.32 -7.68,5.94 -11.43,6.31 -0.02,7.29 -3.77,11.39 -10.85,12.71 1.84,5.88 2.01,8.12 -3.03,13.09 5.82,6.14 3.27,9.19 1.26,13.45 3.46,2.19 5.99,2.96 5.35,9.79 6.95,0.43 6.29,5.38 7.44,7.29 0.86,-0.37 0.57,-0.01 0.24,-1.47 -1.66,-7.48 4.83,-10.65 5.42,-11.24 -1.21,-3.74 -2.3,-5.5 -0.13,-9.59 1.47,-2.76 4.55,-4.27 7.71,-4.47 -0.23,-1.91 -0.54,-3.32 0.14,-5.13 1.59,-4.2 5.71,-6.32 10.4,-5.12 0.7,-3.02 1.33,-4.62 3.5,-5.88 3.24,-1.88 4.63,-0.46 7.33,0.28 0.93,-1.6 0.32,-1.08 1.67,-2.37 2.66,-2.54 6.52,-1.74 8.41,0.26 1.47,-1.23 2.24,-1.57 4.94,-1.36 0.61,-2.12 1.74,-3.73 2.63,-4.94 -0.83,-1.02 -0.57,-1.13 -1.19,-2.57 -2.37,0.1 -3.81,0.26 -5.53,-1.3 -1.82,-1.67 -1.72,-1.91 -2.29,-4.76 -4.33,1.03 -6.74,-0.96 -8.16,-3.97zm36.47 32.71l0.03 0.75 0.77 -0.31c4.42,-0.31 6.86,1.76 7.15,6.02 4.52,-0.39 6.75,0.46 8.23,4.06 6.27,-3.79 8.07,-1.88 12.05,1.14 3.6,-3.08 5.84,-4.45 11.76,-2.32 1.75,-1.98 2.09,-5.69 10.19,-6.3l1.52 0.43 0.13 -2.98c0.23,-5.65 5.51,-9.07 10.51,-10 -2.73,-5.64 -0.62,-9.69 3.19,-13.24 -5.17,-2.75 -4.06,-11.5 -1.17,-13.33 -6.67,-2.57 -5.43,-6.76 -5.7,-9.77 -2.35,-0.22 -3.98,-0.91 -5.15,-2.25 -1.84,-2.1 -1.23,-2.42 -2.02,-5.13 -1.18,0.47 -0.82,-0.24 -0.5,1.55 0.88,4.92 -1.5,9.77 -5.42,10.94 1.33,3.74 2.44,5.89 0.2,9.94 -2.18,3.96 -6.4,4.04 -7.64,4.58 0.62,3.4 -0.45,6.81 -2.34,8.29 -3.31,2.6 -3.98,1.81 -8.43,1.92 -0.2,3.12 -1.47,4.83 -3.6,5.87 -3.02,1.48 -4.49,0.5 -6.96,-0.44 -1.57,1.8 -1.59,3.28 -4.43,3.83 -2.37,0.46 -4.99,-0.52 -5.82,-1.79 -2.12,1.97 -2.35,1.9 -5.47,1.15 -0.73,2.34 -1.86,3.35 -2.99,4.67 0.88,0.68 1.63,1.27 1.92,2.69zm-10.55 -56.05c-4.18,-0.7 -6.43,-4.14 -7.15,-8.55 -1.37,-0.32 -2.71,0.02 -4.28,-0.45 -5.25,-1.58 -5.33,-4.27 -6.93,-6.41 -3.04,1.3 -5.35,2.6 -9.45,1.67 -2.53,-0.58 -4.74,-1.91 -6.32,-3.78l-0.7 -0.7c-3.2,3.62 -6.33,5.53 -12.83,3.77 -0.85,3.06 -1.59,4.74 -3.51,6.16 -2.08,1.53 -4.61,1.93 -7.52,1.54 0.75,6.63 -2.45,7.74 -5.55,9.85 3.23,6.41 -2.67,9.87 -2.73,9.95l0.56 0.68c0.69,-0.25 0.21,0 0.85,-0.46 4.98,-3.59 7.17,-2.88 12.21,-0.82 1.12,-2.55 3.76,-4.95 7.42,-5.13 2.63,-0.13 5.33,0.79 7.04,2.44 0.74,0.71 0.43,0.81 1.38,1.54 1.26,-0.51 1.74,-1.43 3.56,-2.03 4.51,-1.51 9.1,0.74 10.63,6.1 2.49,-1.03 3.8,-1.62 6.61,-0.22 1.59,0.79 3.14,2.48 3.37,4.71l0.04 2.03 2.61 -0.12c3.75,0.48 5.19,3.26 4.83,7.47 3.8,1.84 1.82,0.45 3.66,3.15 2.48,-0.36 3.26,-0.28 5.71,0.07l0.48 -0.7c0.17,-0.27 0.21,-0.35 0.4,-0.61 0.39,-0.55 0.54,-0.63 0.92,-1.38 -1.72,-0.8 -3.92,-5.34 1.11,-9.31 -2.45,-2.62 -2.61,-5.66 -0.7,-9.11 -2.84,-1.96 -6.59,-3.57 -5.23,-10.26l0.36 -0.84 -0.84 -0.23zm30.13 33.65l2.53 -0.07 0.03 -3.17c0.86,-3.82 3.17,-5.76 7.12,-6.54 -0.47,-3.35 -1.04,-4.03 0.39,-7.36 0.6,-1.41 2.47,-3.21 3.79,-3.94 -1.31,-1.84 -2.27,-3.71 -2.03,-6.9 0.27,-3.52 1.43,-3.98 2.51,-6.04 -1.23,-1.25 -2.17,-1.07 -3.34,-2.68 -4.71,-6.48 -2.96,-7.68 -2.07,-13.32 -1.62,-0.18 -2.43,-0.41 -3.8,-1.01 -3.87,-1.7 -4.74,-4.72 -5.56,-8.16 -3.9,-0.03 -4.23,1.3 -8.25,-0.88 -2.17,-1.18 -4.08,-4.96 -4.1,-5.06 -0.03,-0.14 -0.14,-0.13 -0.21,-0.2 -1.33,2.08 -5.5,2.74 -8.71,1.16 -0.67,-0.32 -0.79,-0.39 -1.26,-0.76l-1.13 -0.78c-1.51,3.13 -5.38,4.57 -9.73,2.42l-1.06 1.87c3.64,1.46 5.86,4.52 5.88,9.66 4.02,0 6.37,1.6 8.2,3.82 2.43,2.96 1.71,6.03 0.76,9.67 5.41,1.3 7.37,6.02 6.13,10.24 -0.6,2.05 -1.36,2.37 -2.15,3.75l1.5 1.35c1.3,1.29 1.99,3.08 1.9,5.01 -0.16,3.65 -2.46,4.74 -3.7,5.74 0.71,2.04 2.35,3.39 1.07,6.33 -1.11,2.55 -1.84,2.49 -4.16,3.86 0.69,2.57 0.41,2.92 -1.01,4.7 1.08,1.35 2.16,3.23 2.54,5.62 1.6,-0.37 2.02,-0.49 3.53,0.17 1.41,-4.1 4.28,-5.57 8.91,-3.74l1 -1.81c0.98,-1.62 2.34,-2.76 4.46,-2.97zm19.15 -57.42l-0.42 0.88 2.76 -0c3.6,0.19 6.62,2.63 7.91,4.45 2.19,3.09 2.69,5.43 2.2,9.95 4.34,1.31 3.04,2.34 4.95,5 4.87,-1.04 9.13,1.18 9.36,5.57l0.09 2.14 2.53 0.17c3.14,0.25 5,2.15 6.01,4.48 1.5,3.46 0.39,6.14 -1.06,8.53 3.07,1.56 5.34,2.66 6.37,6.33 0.7,2.49 0.18,5.68 -1.28,7.67 -0.38,0.51 -0.32,0.3 -0.85,0.81 -0.61,0.59 -0.41,0.38 -0.81,1.03 0.72,0.89 2.08,1.31 3.43,4.09 0.89,1.84 1.17,4.17 0.75,6.32 -0.93,4.72 -3.41,6.02 -7.32,7.66 0.77,2.26 3.75,5.89 1.21,11.81 -1.46,3.4 -4.15,5.55 -7.94,6.88 1.03,4.39 0.85,4.64 -1.58,7.63 0.74,1.16 1.31,1.14 2,2.54 1.11,2.24 0.7,5.44 -0.83,7.54 -0.85,1.17 -1.31,1.11 -2.67,2.02 1.14,3.35 2.64,5.28 0.26,9.36 -1.85,3.18 -4.86,3.63 -8.26,3.77 0.63,4.56 -0.26,6.73 -2.75,9.1 -0.99,0.94 -2.26,1.67 -3.96,2.06 -2.67,0.6 -3.26,-0.19 -5.26,-0.25 -1.28,9.31 -9.91,12.33 -17.22,6.36 -4.93,9.72 -16.16,8.64 -20.55,2.19l-0.71 -0.41 -0.03 0.88c-0.76,3.38 -3.89,4.72 -7.74,3.79l-0.74 1.74c-0.62,1.37 -2.36,2.98 -3.55,3.51 -3.55,1.57 -4.9,0.12 -7.6,-0.87 -0.74,2.66 -3.79,4.86 -7.6,4.75 -1.85,-0.05 -3.33,-0.76 -4.6,-1.68 -1.66,-1.2 -1.57,-2.06 -2.79,-3.56 -2.23,1.62 -5.82,3.42 -9.57,1.8 -2.95,-1.28 -5.09,-3.48 -5.56,-7.31 -4.56,1.33 -7.49,1.67 -11,-1.35 -2.64,-2.26 -3.86,-6.05 -2.98,-10.67 -4.48,0.15 -7.78,-1.53 -9.79,-3.79 -2.75,-3.1 -3.01,-5.32 -3.14,-10.29l0.35 -0.71 -0.6 -0.05c-2.66,-0.37 -3.64,-2.59 -4.31,-4.83 -5.62,1.87 -9.88,-2.01 -9.72,-7.55 -4.16,0.18 -6.78,-1.44 -8.16,-4.1 -1.79,-3.47 -1.1,-6.34 0.86,-9.06 -1.11,-0.86 -2.78,-1.24 -3.97,-2.29 -0.72,-0.64 -1.98,-2.55 -2.41,-3.97 -1.24,-4.1 0.82,-8.17 3,-9.62 -7.77,-6.23 -4.98,-15.76 3.07,-18.11 -1.44,-3.24 -3.48,-6.72 -1.29,-11.72 1.24,-2.82 2.76,-4.44 5.19,-5.89 0.82,-0.49 1.81,-0.67 2.74,-1.26 -1.64,-4.48 0.1,-4.95 1.61,-7.75 -4.48,-3.26 -3.18,-9.61 1.6,-11.69 -1.48,-3.38 -2.59,-5.47 -0.35,-9.34 1.58,-2.73 4.17,-3.7 8.25,-3.84 -1.55,-5.99 2.82,-13.24 11.96,-10.85 0.89,-10.54 12.47,-11.67 17.07,-6.61 0.71,-0.71 0.95,-1.69 1.51,-2.41 4.07,-5.22 11.54,-6.21 17.66,-1.51 0.67,0.51 1.29,1.54 1.94,2.3 1.21,-4.36 3.62,-5.45 8.38,-4.63 1.36,-6.08 7.1,-7.32 11.13,-4.46 1.01,-0.8 1.04,-1.74 3.08,-3.29 3.11,-2.37 8.95,-2.21 11.8,2.97l0.71 1.08c1.8,-2.33 5.9,-3.17 9.33,-2.02 3.82,1.29 4.81,4.49 5.87,7.23 6.5,-2.48 12.03,1 13.56,5.26 0.79,2.18 0.59,3.87 0.48,6.12z"/>
   <path class="fil1" d="M98.49 116.83c-1.69,1.57 -2.35,2.53 -1.52,5.41 -3.65,0.71 -6.44,4.84 -2.96,9.84 -1.99,1.53 -3.62,2.13 -3.89,5.61 -0.29,3.91 2.34,5.45 3.39,6.37 -0.48,1.17 -3.78,4.1 -2.11,8.76 1.1,3.05 2.73,4.43 6.09,5.36 -1.24,3.89 -1.62,5.82 0.62,9.46 2.06,3.36 3.64,3.14 8.29,4.15 0.01,4.6 1.96,7.65 5.85,9.5l-0.89 1.9c-4.19,-1.45 -6.39,-2.02 -9.94,2.45 -5.95,-4.11 -7.1,-2.38 -11.48,-0.42 -0.56,-2.45 -2.25,-4.25 -4.06,-5.32 -2.84,-1.68 -4.78,-1.26 -7.92,-0.49 -0.36,-5.26 -4.24,-8.96 -9.47,-9.39 1.04,-3.49 1.82,-5.89 0.25,-9.63 -1.15,-2.73 -3.15,-5.35 -5.63,-6.11 0.92,-1.87 2.41,-3.45 2.6,-6.17 0.26,-3.78 -0.9,-4.49 -1.81,-7.08 2.55,-2.45 6.08,-5.35 3.87,-11.26 4.95,-1.02 7.62,-3.84 7.32,-9.56 3.37,-0.23 6.52,-0.76 7.59,-5.08 4.71,1.55 7.84,0.83 9.18,-3.62 1.14,0.35 2.33,0.51 3.5,0.07 2.12,4.65 2.45,3.67 3.13,5.25z"/>
   <path class="fil1" d="M139.47 94.15c-0.08,0.16 -0.33,0.11 -0.42,1.47 -0.03,0.49 0.04,1.01 0.08,1.51 -1.21,-0.12 -1.35,-0.32 -2.22,0.26 -2.12,0.2 -3.48,1.35 -4.46,2.97l-1 1.81c-4.62,-1.83 -7.5,-0.36 -8.91,3.74 -1.51,-0.66 -1.93,-0.55 -3.53,-0.17 -0.38,-2.39 -1.46,-4.27 -2.54,-5.62 1.42,-1.77 1.7,-2.13 1.01,-4.7 2.32,-1.37 3.05,-1.31 4.16,-3.86 1.28,-2.95 -0.36,-4.29 -1.07,-6.33 1.24,-1 3.54,-2.09 3.7,-5.74 0.08,-1.93 -0.61,-3.72 -1.9,-5.01l-1.5 -1.35c0.79,-1.39 1.54,-1.7 2.15,-3.75 1.24,-4.22 -0.73,-8.94 -6.13,-10.24 0.94,-3.64 1.67,-6.71 -0.76,-9.67 -1.83,-2.23 -4.18,-3.82 -8.2,-3.82 -0.02,-5.14 -2.24,-8.2 -5.88,-9.66l1.06 -1.87c4.35,2.15 8.22,0.71 9.73,-2.42l1.13 0.78c0.47,0.37 0.59,0.43 1.26,0.76 3.21,1.58 7.38,0.92 8.71,-1.16 0.07,0.07 0.18,0.07 0.21,0.2 0.02,0.1 1.93,3.87 4.1,5.06 4.01,2.18 4.34,0.85 8.25,0.88 0.82,3.45 1.69,6.46 5.56,8.16 1.37,0.6 2.18,0.82 3.8,1.01 -0.89,5.64 -2.64,6.84 2.07,13.32 1.17,1.61 2.11,1.43 3.34,2.68 -1.08,2.06 -2.25,2.52 -2.51,6.04 -0.24,3.19 0.72,5.06 2.03,6.9 -1.33,0.73 -3.19,2.53 -3.79,3.94 -1.43,3.33 -0.86,4.01 -0.39,7.36 -3.95,0.78 -6.26,2.72 -7.12,6.54z"/>
   <path class="fil1" d="M118.52 162.64c-0.82,-0.73 -2.03,-0.56 -3.2,-0.47l-0.34 -0.37c-0.03,-0.03 -0.12,-0.15 -0.14,-0.19 -0.04,-0.05 -0.18,-0.27 -0.23,-0.37 -0.21,-4.17 -3.72,-7.31 -7.77,-7.77 0.73,-2.45 0.83,-4.91 -0.28,-7.03 -1.13,-2.15 -2.52,-2.98 -4.56,-4.09 2.27,-5.4 1.66,-4.89 -0.74,-9.31 2.47,-1.66 3.81,-4.02 2.68,-7.19 -0.52,-1.45 -0.81,-1.18 -1.47,-2.3l1.1 -1.35c0.37,-0.62 0.46,-1.38 0.5,-2.19 1.99,-0.17 3.47,0.24 5.95,-0.15 0.07,2.68 1.07,3.96 3.56,4.42 -0.43,5.28 1.97,7.94 7.21,7.62 0.01,2.86 1,5.27 3.03,6.34 2.59,1.36 4.79,1.29 7.1,-0.08 3.34,8.99 11.35,7.16 14.16,4.02 1.9,2.03 4.14,4.49 8.55,4.14 4.09,-0.32 5.88,-2.56 7.58,-5.14 6.25,3.57 9.22,1.02 12.82,-1.4l0.52 0.88c-1.68,1.48 -2.29,1.19 -3.19,3.96 -0.7,2.13 -0.44,4.28 0.59,5.99 -2.26,0.99 -3.51,1.65 -4.46,3.26 -1.24,2.11 -1.51,3.57 -1.21,6.39 -8.73,-0.79 -9.56,4.49 -11.12,7.84 -5.71,-2.29 -10.31,0.25 -12.56,3.84 -1.65,-1.26 -2.64,-3.45 -6.92,-4.52 -3.65,-0.92 -7.2,0.04 -9.66,1.7 -0.53,-0.68 -0.62,-1.25 -1.11,-2.04 -1.18,-1.88 -3.79,-4.24 -6.37,-4.47z"/>
   <path class="fil1" d="M106.79 63.74c0.8,0.76 0.32,-0.08 0.48,1.07 -1.36,6.69 2.39,8.3 5.23,10.26 -1.91,3.45 -1.76,6.48 0.7,9.11 -5.03,3.98 -2.84,8.51 -1.11,9.31 -0.38,0.75 -0.53,0.83 -0.92,1.38 -0.19,0.26 -0.23,0.35 -0.4,0.61l-0.48 0.7c-2.45,-0.35 -3.24,-0.44 -5.71,-0.07 -1.84,-2.69 0.14,-1.31 -3.66,-3.15 0.36,-4.21 -1.07,-6.99 -4.83,-7.47 -0.21,-0.09 0.26,-0.23 -0.9,-0.3 -0.49,-0.03 -0.88,0.08 -1.37,0.15 -0.02,-1.26 0.2,-0.92 -0.37,-1.75 -0.23,-2.23 -1.78,-3.92 -3.37,-4.71 -2.81,-1.39 -4.12,-0.81 -6.61,0.22 -1.53,-5.36 -6.11,-7.61 -10.63,-6.1 -1.81,0.61 -2.3,1.52 -3.56,2.03 -0.95,-0.73 -0.64,-0.83 -1.38,-1.54 -1.71,-1.65 -4.41,-2.57 -7.04,-2.44 -3.66,0.18 -6.3,2.59 -7.42,5.13 -5.04,-2.05 -7.23,-2.77 -12.21,0.82 -0.65,0.46 -0.16,0.22 -0.85,0.46l-0.56 -0.68c0.06,-0.08 5.96,-3.54 2.73,-9.95 3.1,-2.11 6.3,-3.23 5.55,-9.85 2.91,0.38 5.44,-0.01 7.52,-1.54 1.92,-1.42 2.67,-3.1 3.51,-6.16 6.5,1.76 9.63,-0.14 12.83,-3.77l0.7 0.7c1.58,1.87 3.79,3.2 6.32,3.78 4.1,0.94 6.4,-0.37 9.45,-1.67 1.6,2.13 1.68,4.83 6.93,6.41 1.57,0.47 2.91,0.13 4.28,0.45 0.72,4.42 2.97,7.85 7.15,8.55z"/>
   <path class="fil1" d="M169.16 120.28c-0.69,0.94 -0.49,1.4 -0.42,2.71l-1.23 -0.16c-8.1,0.61 -8.44,4.33 -10.19,6.3 -5.93,-2.14 -8.16,-0.76 -11.76,2.32 -3.97,-3.02 -5.78,-4.94 -12.05,-1.14 -1.48,-3.6 -3.71,-4.45 -8.23,-4.06 -0.29,-4.26 -2.73,-6.34 -7.15,-6.02 -0.57,-0.3 -0.45,-0.13 -0.8,-0.44 -0.29,-1.42 -1.04,-2 -1.92,-2.69 1.14,-1.32 2.27,-2.33 2.99,-4.67 3.12,0.75 3.35,0.82 5.47,-1.15 0.83,1.26 3.46,2.25 5.82,1.79 2.84,-0.55 2.87,-2.03 4.43,-3.83 2.47,0.94 3.95,1.92 6.96,0.44 2.13,-1.04 3.4,-2.75 3.6,-5.87 4.45,-0.11 5.12,0.68 8.43,-1.92 1.89,-1.49 2.96,-4.89 2.34,-8.29 1.23,-0.54 5.46,-0.62 7.64,-4.58 2.23,-4.05 1.13,-6.21 -0.2,-9.94 3.92,-1.17 6.3,-6.02 5.42,-10.94 -0.32,-1.8 -0.68,-1.08 0.5,-1.55 0.79,2.71 0.18,3.03 2.02,5.13 1.17,1.34 2.8,2.03 5.15,2.25 0.27,3.01 -0.97,7.2 5.7,9.77 -2.89,1.83 -4,10.57 1.17,13.33 -3.81,3.55 -5.92,7.6 -3.19,13.24 -5,0.92 -10.28,4.35 -10.51,10z"/>
   <path class="fil1" d="M80.86 87.08c1.42,3.01 3.83,5 8.16,3.97 0.57,2.85 0.46,3.1 2.29,4.76 1.72,1.56 3.16,1.4 5.53,1.3 0.62,1.44 0.36,1.55 1.19,2.57 -0.89,1.22 -2.03,2.83 -2.63,4.94 -2.7,-0.21 -3.47,0.13 -4.94,1.36 -1.89,-2 -5.75,-2.8 -8.41,-0.26 -1.35,1.29 -0.74,0.77 -1.67,2.37 -2.69,-0.74 -4.09,-2.16 -7.33,-0.28 -2.17,1.26 -2.81,2.86 -3.5,5.88 -4.69,-1.2 -8.81,0.92 -10.4,5.12 -0.68,1.81 -0.37,3.22 -0.14,5.13 -3.16,0.21 -6.24,1.71 -7.71,4.47 -2.18,4.09 -1.09,5.85 0.13,9.59 -0.59,0.59 -7.08,3.76 -5.42,11.24 0.32,1.46 0.61,1.09 -0.24,1.47 -1.14,-1.91 -0.48,-6.87 -7.44,-7.29 0.64,-6.83 -1.89,-7.6 -5.35,-9.79 2.01,-4.26 4.56,-7.31 -1.26,-13.45 5.04,-4.96 4.88,-7.2 3.03,-13.09 7.08,-1.32 10.82,-5.43 10.85,-12.71 3.75,-0.38 7.85,1.01 11.43,-6.31 1.58,1.07 4.45,1.48 6.67,0.97 3.14,-0.72 3.36,-1.72 5.09,-3.33 3.7,3.39 6.96,4.96 12.1,1.35z"/>
   <path class="fil3" d="M118.52 162.64l-3.87 -0.19 -0.05 -1.2c0.06,0.1 0.2,0.32 0.23,0.37 0.03,0.03 0.12,0.15 0.14,0.19l0.34 0.37c1.17,-0.09 2.39,-0.27 3.2,0.47z"/>
   <path class="fil4" d="M136.91 97.39c0.87,-0.57 1,-0.37 2.22,-0.26 -0.03,-0.5 -0.11,-1.02 -0.08,-1.51 0.09,-1.36 0.34,-1.31 0.42,-1.47l-0.03 3.17 -2.53 0.07z"/>
   <path class="fil5" d="M185.43 68.14l-2.53 -0.17 -0.09 -2.14c0.6,0.84 0.38,0.6 0.26,1.83 1.27,-0.07 1.45,-0.28 2.35,0.48z"/>
   <path class="fil4" d="M96.08 85.5l-2.61 0.12 -0.04 -2.03c0.57,0.84 0.36,0.49 0.37,1.75 0.5,-0.08 0.88,-0.19 1.37,-0.15 1.16,0.07 0.69,0.21 0.9,0.3z"/>
   <path class="fil6" d="M167.51 122.83l1.23 0.16c-0.07,-1.31 -0.27,-1.78 0.42,-2.71l-0.13 2.98 -1.52 -0.43z"/>
   <path class="fil7" d="M158.4 40.85l-2.76 0 0.42 -0.88c-0.14,1.02 -0.08,0.19 0.26,0.55 1.28,0 1.16,-0.16 2.08,0.33z"/>
   <path class="fil8" d="M122.38 186.53l0.03 -0.88 0.71 0.41c-0.49,0.29 -0.3,-0.01 -0.74,0.48z"/>
   <path class="fil9" d="M118.13 120.22l-0.77 0.31 -0.03 -0.75c0.35,0.31 0.23,0.14 0.8,0.44z"/>
   <path class="fil3" d="M107.26 64.8c-0.15,-1.15 0.32,-0.31 -0.48,-1.07l0.84 0.23 -0.36 0.84z"/>
   <polygon class="fil10" points="45.72,162.59 45.47,161.83 46.07,161.88 "/>
  </g>
 </g>
</svg>
