<?xml version="1.0" encoding="UTF-8"?>
<!DOCTYPE svg PUBLIC "-//W3C//DTD SVG 1.1//EN" "http://www.w3.org/Graphics/SVG/1.1/DTD/svg11.dtd">
<!-- Creator: CorelDRAW 2020 (64-Bit) -->
<svg xmlns="http://www.w3.org/2000/svg" xml:space="preserve" width="1.82784in" height="0.24439in" version="1.1" style="shape-rendering:geometricPrecision; text-rendering:geometricPrecision; image-rendering:optimizeQuality; fill-rule:evenodd; clip-rule:evenodd"
viewBox="0 0 726.37 97.12"
 xmlns:xlink="http://www.w3.org/1999/xlink"
 xmlns:xodm="http://www.corel.com/coreldraw/odm/2003">
 <defs>
  <style type="text/css">
   <![CDATA[
    .str0 {stroke:#B1361E;stroke-width:1.19;stroke-miterlimit:2.61313}
    .fil0 {fill:#B1361E;fill-rule:nonzero}
   ]]>
  </style>
 </defs>
 <g id="Layer_x0020_1">
  <metadata id="CorelCorpID_0Corel-Layer"/>
  <path class="fil0 str0" d="M72.9 91.62c-6.76,3.27 -15.61,4.9 -26.51,4.9 -14.22,0 -25.41,-4.17 -33.56,-12.54 -8.17,-8.37 -12.23,-19.52 -12.23,-33.45 0,-14.84 4.57,-26.87 13.73,-36.1 9.16,-9.23 21.06,-13.84 35.68,-13.84 9.05,0 16.69,1.15 22.89,3.44l0 20.11c-6.2,-3.71 -13.27,-5.56 -21.22,-5.56 -8.7,0 -15.74,2.74 -21.08,8.21 -5.34,5.48 -8.01,12.89 -8.01,22.25 0,8.96 2.52,16.12 7.57,21.44 5.03,5.32 11.83,7.99 20.38,7.99 8.15,0 15.61,-1.99 22.36,-5.96l0 19.1zm53.76 4.9c-13.29,0 -24.11,-4.33 -32.48,-12.96 -8.37,-8.66 -12.54,-19.91 -12.54,-33.8 0,-14.66 4.24,-26.52 12.74,-35.57 8.5,-9.05 19.74,-13.6 33.76,-13.6 13.25,0 23.95,4.35 32.12,13 8.17,8.68 12.25,20.11 12.25,34.29 0,14.57 -4.24,26.34 -12.72,35.26 -8.46,8.92 -19.52,13.38 -33.14,13.38zm0.9 -77.93c-7.33,0 -13.16,2.74 -17.46,8.26 -4.3,5.5 -6.47,12.76 -6.47,21.81 0,9.18 2.16,16.45 6.47,21.81 4.31,5.34 9.96,8.01 16.93,8.01 7.22,0 12.92,-2.6 17.15,-7.79 4.22,-5.21 6.34,-12.41 6.34,-21.64 0,-9.63 -2.05,-17.11 -6.14,-22.45 -4.11,-5.34 -9.71,-8.01 -16.82,-8.01zm60.34 76.32l0 -92.75 32.87 0c32.94,0 49.41,15.06 49.41,45.22 0,14.44 -4.5,25.96 -13.49,34.6 -8.99,8.63 -20.95,12.94 -35.92,12.94l-32.87 0zm20.91 -75.75l0 58.79 10.35 0c9.05,0 16.14,-2.72 21.3,-8.15 5.14,-5.43 7.73,-12.83 7.73,-22.19 0,-8.83 -2.56,-15.79 -7.66,-20.84 -5.12,-5.08 -12.27,-7.62 -21.5,-7.62l-10.22 0zm132.4 75.75l-55.64 0 0 -92.75 53.49 0 0 17 -32.59 0 0 20.64 30.33 0 0 16.93 -30.33 0 0 21.22 34.73 0 0 16.95zm138.87 -92.75l-24.53 92.75 -23.16 0 -15.39 -59.5c-0.82,-3.11 -1.3,-6.58 -1.48,-10.42l-0.26 0c-0.4,4.22 -0.95,7.71 -1.68,10.42l-15.79 59.5 -24.13 0 -24.37 -92.75 22.83 0 13.07 61.77c0.55,2.63 0.97,6.16 1.21,10.6l0.4 0c0.18,-3.31 0.79,-6.93 1.88,-10.86l16.82 -61.51 22.37 0 15.21 62.28c0.55,2.3 1.06,5.61 1.48,9.96l0.26 0c0.18,-3.4 0.62,-6.84 1.35,-10.33l12.83 -61.91 21.08 0zm88.66 92.75l-22.76 0 -6.6 -20.64 -32.98 0 -6.54 20.64 -22.65 0 33.78 -92.75 24.77 0 32.98 92.75zm-34.15 -36.67l-9.96 -31.17c-0.73,-2.34 -1.26,-5.12 -1.57,-8.35l-0.51 0c-0.22,2.72 -0.75,5.41 -1.61,8.08l-10.09 31.44 23.73 0zm123.55 36.67l-24 0 -14.42 -23.87c-1.08,-1.81 -2.12,-3.42 -3.11,-4.86 -0.99,-1.41 -1.99,-2.63 -3,-3.64 -1.02,-1.02 -2.07,-1.79 -3.18,-2.34 -1.1,-0.53 -2.3,-0.79 -3.58,-0.79l-5.63 0 0 35.5 -20.91 0 0 -92.75 33.12 0c22.52,0 33.78,8.41 33.78,25.21 0,3.24 -0.51,6.23 -1.5,8.96 -0.99,2.74 -2.38,5.21 -4.19,7.42 -1.81,2.19 -4,4.09 -6.56,5.67 -2.58,1.61 -5.43,2.85 -8.59,3.75l0 0.26c1.39,0.44 2.72,1.13 4.02,2.1 1.3,0.97 2.54,2.1 3.75,3.4 1.21,1.3 2.36,2.69 3.47,4.17 1.1,1.48 2.1,2.94 3,4.37l17.53 27.42zm-56.91 -77.09l0 25.81 9.05 0c4.48,0 8.08,-1.3 10.8,-3.89 2.76,-2.63 4.15,-5.89 4.15,-9.76 0,-8.12 -4.86,-12.16 -14.57,-12.16l-9.43 0zm61.31 73.54l0 -20.71c3.75,3.16 7.84,5.52 12.23,7.09 4.39,1.57 8.83,2.36 13.31,2.36 2.65,0 4.94,-0.24 6.89,-0.71 1.97,-0.49 3.6,-1.13 4.92,-1.99 1.33,-0.84 2.3,-1.83 2.94,-2.96 0.66,-1.15 0.97,-2.38 0.97,-3.73 0,-1.81 -0.51,-3.42 -1.55,-4.83 -1.04,-1.43 -2.45,-2.76 -4.24,-3.95 -1.79,-1.21 -3.91,-2.38 -6.38,-3.49 -2.45,-1.12 -5.1,-2.27 -7.95,-3.44 -7.24,-3 -12.65,-6.69 -16.2,-11.06 -3.55,-4.35 -5.32,-9.6 -5.32,-15.76 0,-4.83 0.95,-8.99 2.89,-12.45 1.94,-3.49 4.59,-6.34 7.92,-8.59 3.36,-2.23 7.22,-3.89 11.61,-4.95 4.39,-1.06 9.05,-1.59 13.97,-1.59 4.84,0 9.12,0.31 12.85,0.88 3.71,0.57 7.15,1.48 10.31,2.69l0 19.34c-1.57,-1.08 -3.24,-2.03 -5.08,-2.85 -1.83,-0.82 -3.73,-1.5 -5.67,-2.05 -1.92,-0.53 -3.86,-0.93 -5.78,-1.19 -1.92,-0.24 -3.73,-0.38 -5.45,-0.38 -2.38,0 -4.53,0.22 -6.47,0.66 -1.94,0.46 -3.58,1.1 -4.92,1.92 -1.33,0.82 -2.36,1.79 -3.11,2.94 -0.73,1.15 -1.08,2.43 -1.08,3.84 0,1.57 0.4,2.96 1.21,4.17 0.82,1.24 1.99,2.41 3.51,3.51 1.5,1.08 3.33,2.16 5.5,3.22 2.14,1.06 4.59,2.14 7.31,3.27 3.71,1.55 7.02,3.2 9.98,4.95 2.96,1.74 5.5,3.73 7.59,5.92 2.12,2.21 3.73,4.72 4.86,7.55 1.13,2.8 1.68,6.09 1.68,9.85 0,5.19 -0.97,9.52 -2.94,13.05 -1.97,3.51 -4.62,6.36 -7.99,8.52 -3.36,2.19 -7.26,3.75 -11.72,4.7 -4.48,0.95 -9.18,1.41 -14.15,1.41 -5.08,0 -9.91,-0.42 -14.5,-1.28 -4.59,-0.86 -8.59,-2.16 -11.94,-3.89z"/>
 </g>
</svg>
