<?xml version="1.0" encoding="UTF-8"?>
<!DOCTYPE svg PUBLIC "-//W3C//DTD SVG 1.1//EN" "http://www.w3.org/Graphics/SVG/1.1/DTD/svg11.dtd">
<!-- Creator: CorelDRAW 2020 (64-Bit) -->
<svg xmlns="http://www.w3.org/2000/svg" xml:space="preserve" width="2.15994in" height="0.244398in" version="1.1" style="shape-rendering:geometricPrecision; text-rendering:geometricPrecision; image-rendering:optimizeQuality; fill-rule:evenodd; clip-rule:evenodd"
viewBox="0 0 1872.14 211.83"
 xmlns:xlink="http://www.w3.org/1999/xlink"
 xmlns:xodm="http://www.corel.com/coreldraw/odm/2003">
 <defs>
  <style type="text/css">
   <![CDATA[
    .str0 {stroke:#B1361E;stroke-width:2.6;stroke-miterlimit:2.61313}
    .fil1 {fill:#AE3424}
    .fil9 {fill:#CE887C}
    .fil5 {fill:#D39287}
    .fil10 {fill:#D4978C}
    .fil3 {fill:#D5988E}
    .fil4 {fill:#D79B91}
    .fil7 {fill:#D79C93}
    .fil8 {fill:#D9A399}
    .fil6 {fill:#DBA89F}
    .fil2 {fill:white}
    .fil0 {fill:#B1361E;fill-rule:nonzero}
   ]]>
  </style>
 </defs>
 <g id="Layer_x0020_1">
  <metadata id="CorelCorpID_0Corel-Layer"/>
  <path class="fil0 str0" d="M446.84 199.85c-14.75,7.13 -34.05,10.69 -57.82,10.69 -31.02,0 -55.42,-9.09 -73.2,-27.35 -17.82,-18.26 -26.67,-42.57 -26.67,-72.96 0,-32.37 9.97,-58.6 29.95,-78.74 19.98,-20.13 45.93,-30.19 77.82,-30.19 19.74,0 36.4,2.51 49.92,7.5l0 43.86c-13.52,-8.09 -28.94,-12.13 -46.28,-12.13 -18.98,0 -34.33,5.98 -45.98,17.9 -11.65,11.95 -17.47,28.11 -17.47,48.53 0,19.54 5.5,35.16 16.51,46.76 10.97,11.6 25.8,17.43 44.45,17.43 17.78,0 34.05,-4.34 48.77,-13l0 41.66 0 0.02zm117.25 10.69c-28.99,0 -52.59,-9.45 -70.84,-28.27 -18.26,-18.89 -27.35,-43.43 -27.35,-73.72 0,-31.97 9.25,-57.84 27.79,-77.58 18.54,-19.74 43.05,-29.66 73.63,-29.66 28.9,0 52.24,9.49 70.06,28.35 17.82,18.93 26.72,43.86 26.72,74.79 0,31.78 -9.25,57.45 -27.74,76.91 -18.45,19.45 -42.57,29.18 -72.28,29.18l0.02 0zm1.96 -169.97c-15.99,0 -28.7,5.98 -38.08,18.01 -9.38,11.99 -14.11,27.83 -14.11,47.57 0,20.02 4.71,35.88 14.11,47.57 9.4,11.65 21.72,17.47 36.93,17.47 15.75,0 28.18,-5.67 37.41,-16.99 9.2,-11.36 13.83,-27.07 13.83,-47.2 0,-21 -4.47,-37.32 -13.39,-48.96 -8.96,-11.65 -21.18,-17.47 -36.69,-17.47zm131.61 166.46l0 -202.3 71.69 0c71.85,0 107.77,32.85 107.77,98.63 0,31.49 -9.81,56.62 -29.42,75.47 -19.61,18.82 -45.69,28.22 -78.35,28.22l-71.69 0 0 -0.02zm45.61 -165.22l0 128.23 22.57 0c19.74,0 35.2,-5.93 46.46,-17.78 11.21,-11.84 16.86,-27.98 16.86,-48.4 0,-19.26 -5.58,-34.44 -16.71,-45.45 -11.17,-11.08 -26.76,-16.62 -46.89,-16.62l-22.29 0 0 0.02zm288.77 165.22l-121.36 0 0 -202.3 116.67 0 0 37.08 -71.08 0 0 45.02 66.15 0 0 36.93 -66.15 0 0 46.28 75.75 0 0 36.97 0.02 0.02zm302.89 -202.3l-53.5 202.3 -50.51 0 -33.57 -129.77c-1.79,-6.78 -2.84,-14.35 -3.23,-22.73l-0.57 0c-0.87,9.2 -2.07,16.82 -3.66,22.73l-34.44 129.77 -52.63 0 -53.15 -202.3 49.79 0 28.51 134.73c1.2,5.74 2.12,13.43 2.64,23.12l0.87 0c0.39,-7.22 1.72,-15.11 4.1,-23.69l36.69 -134.16 48.79 0 33.18 135.84c1.2,5.02 2.31,12.24 3.23,21.72l0.57 0c0.39,-7.42 1.35,-14.92 2.94,-22.53l27.98 -135.03 45.98 0zm193.38 202.3l-49.64 0 -14.39 -45.02 -71.93 0 -14.26 45.02 -49.4 0 73.68 -202.3 54.03 0 71.93 202.3 -0 0zm-74.48 -79.98l-21.72 -67.99c-1.59,-5.1 -2.75,-11.17 -3.42,-18.21l-1.11 0c-0.48,5.93 -1.63,11.8 -3.51,17.62l-22.01 68.57 51.76 0 0.02 0zm269.47 79.98l-52.35 0 -31.45 -52.06c-2.35,-3.95 -4.62,-7.46 -6.78,-10.6 -2.16,-3.07 -4.34,-5.74 -6.54,-7.94 -2.22,-2.22 -4.51,-3.9 -6.94,-5.1 -2.4,-1.16 -5.02,-1.72 -7.81,-1.72l-12.28 0 0 77.43 -45.61 0 0 -202.3 72.24 0c49.12,0 73.68,18.34 73.68,54.98 0,7.07 -1.11,13.59 -3.27,19.54 -2.16,5.98 -5.19,11.36 -9.14,16.19 -3.95,4.78 -8.73,8.92 -14.31,12.37 -5.63,3.51 -11.84,6.22 -18.73,8.18l0 0.57c3.03,0.96 5.93,2.46 8.77,4.58 2.84,2.12 5.54,4.58 8.18,7.42 2.64,2.84 5.15,5.87 7.57,9.09 2.4,3.23 4.58,6.41 6.54,9.53l38.23 59.81 0 0.05zm-124.13 -168.14l0 56.29 19.74 0c9.77,0 17.62,-2.84 23.56,-8.48 6.02,-5.74 9.05,-12.85 9.05,-21.29 0,-17.71 -10.6,-26.52 -31.78,-26.52l-20.57 0 0 -0zm133.72 160.4l0 -45.17c8.18,6.89 17.1,12.04 26.67,15.47 9.58,3.42 19.26,5.15 29.03,5.15 5.78,0 10.77,-0.52 15.03,-1.55 4.3,-1.07 7.85,-2.46 10.73,-4.34 2.9,-1.83 5.02,-3.99 6.41,-6.46 1.44,-2.51 2.12,-5.19 2.12,-8.14 0,-3.95 -1.11,-7.46 -3.38,-10.53 -2.27,-3.12 -5.34,-6.02 -9.25,-8.62 -3.9,-2.64 -8.53,-5.19 -13.92,-7.61 -5.34,-2.44 -11.12,-4.95 -17.34,-7.5 -15.79,-6.54 -27.59,-14.59 -35.33,-24.12 -7.74,-9.49 -11.6,-20.94 -11.6,-34.37 0,-10.53 2.07,-19.61 6.3,-27.16 4.23,-7.61 10.01,-13.83 17.27,-18.73 7.33,-4.86 15.75,-8.48 25.32,-10.8 9.58,-2.31 19.74,-3.47 30.47,-3.47 10.56,0 19.89,0.68 28.03,1.92 8.09,1.24 15.59,3.23 22.49,5.87l0 42.18c-3.42,-2.35 -7.07,-4.43 -11.08,-6.22 -3.99,-1.79 -8.14,-3.27 -12.37,-4.47 -4.19,-1.16 -8.42,-2.03 -12.61,-2.6 -4.19,-0.52 -8.14,-0.83 -11.89,-0.83 -5.19,0 -9.88,0.48 -14.11,1.44 -4.23,1 -7.81,2.4 -10.73,4.19 -2.9,1.79 -5.15,3.9 -6.78,6.41 -1.59,2.51 -2.35,5.3 -2.35,8.37 0,3.42 0.87,6.46 2.64,9.09 1.79,2.71 4.34,5.26 7.65,7.65 3.27,2.35 7.26,4.71 11.99,7.02 4.67,2.31 10.01,4.67 15.94,7.13 8.09,3.38 15.31,6.98 21.77,10.8 6.46,3.79 11.99,8.14 16.55,12.91 4.62,4.82 8.14,10.3 10.6,16.47 2.46,6.11 3.66,13.28 3.66,21.48 0,11.32 -2.12,20.76 -6.41,28.46 -4.3,7.65 -10.08,13.87 -17.43,18.58 -7.33,4.78 -15.83,8.18 -25.56,10.25 -9.77,2.07 -20.02,3.07 -30.86,3.07 -11.08,0 -21.61,-0.91 -31.63,-2.79 -10.01,-1.88 -18.73,-4.71 -26.04,-8.48l-0.02 0.03z"/>
  <g id="_2422247672128">
   <path class="fil1" d="M44.41 158.05l0.25 0.74c0.12,4.86 0.38,7.02 3.06,10.05 1.97,2.21 5.19,3.86 9.56,3.71 -0.86,4.51 0.34,8.22 2.91,10.42 3.43,2.94 6.29,2.61 10.74,1.31 0.46,3.74 2.54,5.89 5.43,7.14 3.66,1.59 7.17,-0.17 9.35,-1.75 1.19,1.46 1.1,2.3 2.73,3.47 1.24,0.9 2.69,1.59 4.49,1.64 3.71,0.11 6.7,-2.04 7.42,-4.64 2.64,0.97 3.96,2.38 7.42,0.85 1.16,-0.52 2.86,-2.09 3.47,-3.43l0.73 -1.7c3.76,0.91 6.81,-0.4 7.56,-3.7 0.43,-0.47 0.25,-0.18 0.73,-0.46 4.29,6.3 15.26,7.36 20.07,-2.14 7.14,5.84 15.56,2.89 16.82,-6.21 1.96,0.06 2.53,0.83 5.14,0.24 1.66,-0.38 2.91,-1.1 3.87,-2.01 2.43,-2.31 3.29,-4.43 2.68,-8.88 3.32,-0.14 6.26,-0.58 8.07,-3.69 2.32,-3.99 0.86,-5.87 -0.25,-9.14 1.32,-0.88 1.77,-0.83 2.6,-1.97 1.49,-2.06 1.89,-5.18 0.81,-7.37 -0.68,-1.36 -1.23,-1.35 -1.95,-2.48 2.37,-2.91 2.55,-3.16 1.54,-7.45 3.7,-1.3 6.33,-3.4 7.76,-6.72 2.48,-5.78 -0.43,-9.32 -1.18,-11.53 3.82,-1.6 6.24,-2.87 7.15,-7.48 0.41,-2.1 0.14,-4.37 -0.73,-6.17 -1.32,-2.72 -2.64,-3.13 -3.35,-4 0.39,-0.64 0.19,-0.43 0.79,-1.01 0.52,-0.5 0.45,-0.29 0.83,-0.8 1.43,-1.94 1.93,-5.06 1.25,-7.49 -1,-3.59 -3.22,-4.66 -6.22,-6.19 1.41,-2.33 2.5,-4.94 1.03,-8.33 -0.98,-2.28 -2.81,-4.13 -5.87,-4.37 -0.88,-0.75 -1.06,-0.54 -2.3,-0.47 0.11,-1.2 0.33,-0.97 -0.26,-1.79 -0.22,-4.29 -4.38,-6.46 -9.14,-5.44 -1.86,-2.6 -0.59,-3.6 -4.83,-4.88 0.48,-4.42 -0.01,-6.71 -2.15,-9.72 -1.27,-1.78 -4.22,-4.17 -7.73,-4.35 -0.9,-0.48 -0.78,-0.32 -2.03,-0.32 -0.33,-0.35 -0.38,0.47 -0.25,-0.53 0.11,-2.2 0.3,-3.85 -0.47,-5.98 -1.49,-4.16 -6.9,-7.56 -13.24,-5.14 -1.04,-2.68 -2,-5.8 -5.74,-7.06 -3.34,-1.13 -7.35,-0.31 -9.11,1.97l-0.69 -1.05c-2.78,-5.06 -8.48,-5.21 -11.52,-2.9 -1.99,1.52 -2.02,2.43 -3.01,3.21 -3.93,-2.8 -9.54,-1.58 -10.87,4.35 -4.65,-0.81 -7,0.26 -8.19,4.52 -0.63,-0.74 -1.24,-1.74 -1.89,-2.25 -5.98,-4.58 -13.27,-3.62 -17.25,1.48 -0.55,0.7 -0.78,1.67 -1.47,2.36 -4.49,-4.93 -15.8,-3.83 -16.67,6.46 -8.93,-2.33 -13.2,4.75 -11.68,10.6 -3.99,0.14 -6.52,1.09 -8.06,3.75 -2.18,3.78 -1.1,5.83 0.34,9.12 -4.67,2.03 -5.93,8.23 -1.56,11.42 -1.47,2.74 -3.17,3.2 -1.57,7.57 -0.9,0.58 -1.88,0.75 -2.68,1.23 -2.38,1.42 -3.86,3 -5.07,5.75 -2.14,4.88 -0.14,8.28 1.26,11.45 -7.86,2.3 -10.59,11.61 -3,17.69 -2.13,1.42 -4.14,5.4 -2.93,9.4 0.42,1.38 1.65,3.25 2.35,3.87 1.16,1.02 2.79,1.4 3.88,2.23 -1.91,2.66 -2.58,5.46 -0.84,8.85 1.34,2.6 3.9,4.18 7.96,4.01 -0.15,5.42 4.01,9.2 9.5,7.37 0.65,2.18 1.61,4.35 4.21,4.72zm159.25 -156.25c8.92,2.56 7.43,9.3 7.43,18.72l0 131.34c0,7.34 0.69,48.46 -0.61,51.91 -2.94,7.76 -11.03,6.21 -19.73,6.21l-157.55 0c-5.42,0 -21.74,0.66 -25.88,-0.38 -3.25,-0.82 -5.59,-3.14 -6.62,-6.17 -0.99,-2.92 -0.49,-34.29 -0.49,-38.76l0 -105.07c0,-7.36 -0.72,-48.24 0.58,-51.8 2.99,-8.16 11.79,-6.32 19.61,-6.32l157.54 0c4.67,0 22.66,-0.55 25.73,0.33z"/>
   <path class="fil2" d="M111.92 157.48l0.05 1.17 3.78 0.18c2.52,0.22 5.07,2.52 6.22,4.36 0.48,0.77 0.57,1.33 1.09,1.99 2.41,-1.62 5.87,-2.55 9.44,-1.66 4.18,1.05 5.15,3.18 6.76,4.41 2.2,-3.51 6.7,-5.99 12.27,-3.75 1.53,-3.27 2.33,-8.43 10.86,-7.66 -0.29,-2.75 -0.03,-4.18 1.18,-6.24 0.93,-1.57 2.15,-2.22 4.36,-3.19 -1.01,-1.67 -1.26,-3.76 -0.58,-5.85 0.88,-2.7 1.48,-2.42 3.12,-3.86l-0.51 -0.86c-3.51,2.36 -6.41,4.86 -12.52,1.37 -1.67,2.51 -3.41,4.7 -7.4,5.02 -4.31,0.34 -6.49,-2.06 -8.35,-4.04 -2.75,3.06 -10.58,4.85 -13.83,-3.93 -2.25,1.34 -4.4,1.4 -6.93,0.08 -1.99,-1.05 -2.96,-3.4 -2.96,-6.19 -5.12,0.31 -7.46,-2.29 -7.04,-7.44 -2.43,-0.45 -3.41,-1.7 -3.48,-4.32 -2.42,0.38 -3.87,-0.03 -5.81,0.14 -0.03,0.79 -0.12,1.53 -0.49,2.14l-1.08 1.31c0.65,1.1 0.94,0.83 1.44,2.25 1.11,3.09 -0.2,5.4 -2.62,7.02 2.35,4.32 2.94,3.82 0.72,9.09 2,1.08 3.35,1.89 4.46,3.99 1.09,2.07 0.99,4.48 0.28,6.87 3.95,0.46 7.38,3.52 7.59,7.59zm-8 10.3c-4.54,-0.99 -6.08,-0.77 -8.09,-4.05 -2.18,-3.56 -1.82,-5.44 -0.6,-9.24 -3.28,-0.91 -4.88,-2.26 -5.95,-5.24 -1.63,-4.55 1.59,-7.41 2.06,-8.55 -1.03,-0.9 -3.6,-2.4 -3.31,-6.22 0.26,-3.41 1.85,-3.99 3.79,-5.48 -3.4,-4.88 -0.68,-8.91 2.89,-9.61 -0.82,-2.82 -0.17,-3.75 1.48,-5.29 -0.66,-1.54 -0.99,-0.58 -3.06,-5.13 -1.15,0.43 -2.31,0.27 -3.42,-0.07 -1.31,4.35 -4.36,5.05 -8.97,3.54 -1.04,4.22 -4.12,4.74 -7.41,4.96 0.29,5.58 -2.32,8.33 -7.15,9.33 2.16,5.78 -1.29,8.61 -3.78,11 0.89,2.53 2.03,3.22 1.77,6.91 -0.18,2.66 -1.63,4.2 -2.54,6.03 2.43,0.74 4.37,3.3 5.5,5.96 1.54,3.65 0.77,5.99 -0.24,9.4 5.1,0.42 8.89,4.03 9.24,9.17 3.07,-0.75 4.96,-1.17 7.74,0.47 1.77,1.05 3.42,2.8 3.97,5.2 4.28,-1.91 5.41,-3.6 11.21,0.41 3.46,-4.36 5.61,-3.8 9.71,-2.39l0.87 -1.85c-3.79,-1.81 -5.7,-4.78 -5.71,-9.27zm-24.95 -82.74c-5.02,3.53 -8.2,2 -11.81,-1.31 -1.69,1.57 -1.9,2.55 -4.98,3.25 -2.17,0.49 -4.97,0.1 -6.51,-0.95 -3.49,7.15 -7.5,5.8 -11.16,6.17 -0.02,7.11 -3.68,11.12 -10.59,12.41 1.8,5.75 1.96,7.93 -2.96,12.78 5.68,5.99 3.19,8.97 1.23,13.13 3.38,2.14 5.85,2.89 5.22,9.56 6.79,0.42 6.15,5.25 7.26,7.12 0.84,-0.37 0.56,-0.01 0.24,-1.43 -1.62,-7.3 4.71,-10.4 5.29,-10.98 -1.18,-3.65 -2.25,-5.37 -0.12,-9.37 1.43,-2.7 4.45,-4.17 7.53,-4.37 -0.22,-1.87 -0.53,-3.24 0.14,-5.01 1.55,-4.1 5.57,-6.17 10.16,-5 0.68,-2.94 1.3,-4.51 3.42,-5.74 3.16,-1.84 4.52,-0.45 7.16,0.28 0.91,-1.56 0.31,-1.05 1.63,-2.32 2.6,-2.48 6.37,-1.7 8.21,0.25 1.44,-1.2 2.19,-1.53 4.83,-1.33 0.59,-2.07 1.7,-3.64 2.57,-4.83 -0.81,-1 -0.56,-1.11 -1.16,-2.51 -2.31,0.1 -3.72,0.25 -5.4,-1.27 -1.78,-1.63 -1.68,-1.86 -2.23,-4.65 -4.23,1 -6.58,-0.94 -7.96,-3.88zm35.62 31.95l0.03 0.73 0.75 -0.3c4.32,-0.31 6.7,1.72 6.98,5.88 4.42,-0.38 6.59,0.45 8.04,3.97 6.13,-3.71 7.89,-1.84 11.77,1.12 3.52,-3.01 5.7,-4.35 11.49,-2.26 1.71,-1.93 2.04,-5.56 9.95,-6.16l1.49 0.42 0.13 -2.91c0.23,-5.52 5.38,-8.86 10.26,-9.76 -2.67,-5.5 -0.6,-9.46 3.12,-12.93 -5.05,-2.69 -3.97,-11.23 -1.15,-13.01 -6.51,-2.51 -5.3,-6.6 -5.57,-9.54 -2.3,-0.21 -3.88,-0.89 -5.03,-2.2 -1.79,-2.05 -1.2,-2.36 -1.97,-5.01 -1.15,0.46 -0.8,-0.24 -0.49,1.52 0.86,4.81 -1.46,9.54 -5.29,10.69 1.3,3.65 2.38,5.75 0.2,9.71 -2.13,3.87 -6.25,3.94 -7.46,4.47 0.6,3.32 -0.44,6.65 -2.29,8.1 -3.23,2.54 -3.89,1.77 -8.23,1.88 -0.2,3.05 -1.44,4.72 -3.52,5.74 -2.94,1.44 -4.39,0.48 -6.8,-0.43 -1.53,1.75 -1.55,3.2 -4.33,3.74 -2.31,0.45 -4.88,-0.51 -5.69,-1.74 -2.07,1.92 -2.29,1.86 -5.34,1.12 -0.71,2.29 -1.81,3.27 -2.92,4.56 0.86,0.67 1.59,1.24 1.87,2.62zm-10.3 -54.74c-4.08,-0.68 -6.28,-4.04 -6.98,-8.35 -1.34,-0.32 -2.65,0.02 -4.18,-0.44 -5.13,-1.54 -5.2,-4.17 -6.77,-6.26 -2.97,1.27 -5.22,2.54 -9.23,1.63 -2.47,-0.57 -4.63,-1.86 -6.17,-3.69l-0.68 -0.68c-3.13,3.54 -6.18,5.4 -12.53,3.68 -0.83,2.99 -1.55,4.63 -3.43,6.02 -2.03,1.5 -4.5,1.88 -7.34,1.51 0.73,6.47 -2.39,7.56 -5.42,9.62 3.15,6.26 -2.61,9.64 -2.67,9.72l0.54 0.67c0.68,-0.24 0.2,0 0.83,-0.45 4.87,-3.51 7,-2.81 11.92,-0.8 1.09,-2.49 3.67,-4.84 7.25,-5.01 2.57,-0.13 5.2,0.77 6.87,2.38 0.72,0.7 0.42,0.79 1.35,1.51 1.23,-0.5 1.7,-1.39 3.47,-1.99 4.41,-1.47 8.88,0.72 10.38,5.96 2.43,-1.01 3.71,-1.58 6.45,-0.22 1.55,0.77 3.07,2.42 3.29,4.6l0.04 1.98 2.55 -0.12c3.66,0.47 5.06,3.18 4.71,7.29 3.71,1.8 1.77,0.44 3.57,3.07 2.42,-0.35 3.18,-0.27 5.58,0.07l0.46 -0.69c0.17,-0.26 0.21,-0.34 0.39,-0.6 0.39,-0.54 0.53,-0.61 0.9,-1.35 -1.68,-0.78 -3.83,-5.21 1.09,-9.09 -2.4,-2.56 -2.55,-5.52 -0.68,-8.9 -2.77,-1.92 -6.44,-3.48 -5.1,-10.02l0.35 -0.82 -0.82 -0.22zm29.42 32.87l2.47 -0.06 0.03 -3.1c0.84,-3.73 3.09,-5.62 6.95,-6.38 -0.46,-3.27 -1.02,-3.93 0.38,-7.19 0.59,-1.38 2.41,-3.14 3.71,-3.85 -1.28,-1.8 -2.22,-3.62 -1.98,-6.74 0.26,-3.44 1.4,-3.89 2.45,-5.9 -1.2,-1.22 -2.12,-1.04 -3.26,-2.61 -4.6,-6.33 -2.89,-7.5 -2.02,-13.01 -1.58,-0.18 -2.38,-0.4 -3.71,-0.98 -3.78,-1.66 -4.63,-4.61 -5.43,-7.97 -3.81,-0.03 -4.14,1.27 -8.05,-0.86 -2.12,-1.16 -3.99,-4.84 -4.01,-4.94 -0.03,-0.13 -0.14,-0.13 -0.2,-0.2 -1.3,2.03 -5.37,2.67 -8.51,1.13 -0.65,-0.32 -0.77,-0.38 -1.23,-0.74l-1.1 -0.76c-1.48,3.06 -5.25,4.46 -9.5,2.36l-1.04 1.83c3.56,1.43 5.73,4.41 5.75,9.44 3.93,0 6.22,1.56 8.01,3.73 2.38,2.89 1.67,5.89 0.74,9.45 5.28,1.27 7.2,5.88 5.99,10 -0.59,2 -1.32,2.31 -2.1,3.66l1.46 1.32c1.27,1.26 1.94,3.01 1.86,4.89 -0.16,3.57 -2.4,4.63 -3.61,5.61 0.7,2 2.3,3.31 1.05,6.19 -1.08,2.49 -1.8,2.43 -4.06,3.77 0.67,2.51 0.4,2.85 -0.99,4.59 1.05,1.32 2.11,3.15 2.48,5.49 1.57,-0.37 1.97,-0.48 3.45,0.17 1.38,-4 4.18,-5.44 8.7,-3.65l0.98 -1.77c0.96,-1.58 2.29,-2.7 4.36,-2.9zm18.7 -56.08l-0.41 0.86 2.7 -0c3.51,0.18 6.46,2.57 7.73,4.35 2.14,3.01 2.63,5.3 2.15,9.72 4.24,1.28 2.97,2.28 4.83,4.88 4.76,-1.02 8.92,1.15 9.14,5.44l0.09 2.09 2.47 0.17c3.06,0.25 4.89,2.1 5.87,4.37 1.46,3.38 0.38,5.99 -1.03,8.33 3,1.53 5.22,2.6 6.22,6.19 0.68,2.44 0.18,5.55 -1.25,7.49 -0.37,0.5 -0.31,0.29 -0.83,0.8 -0.6,0.58 -0.4,0.37 -0.79,1.01 0.71,0.87 2.03,1.28 3.35,4 0.87,1.8 1.14,4.07 0.73,6.17 -0.9,4.61 -3.33,5.88 -7.15,7.48 0.75,2.21 3.66,5.75 1.18,11.53 -1.43,3.32 -4.05,5.42 -7.76,6.72 1.01,4.29 0.83,4.54 -1.54,7.45 0.72,1.13 1.28,1.11 1.95,2.48 1.09,2.19 0.69,5.31 -0.81,7.37 -0.83,1.14 -1.28,1.09 -2.6,1.97 1.12,3.27 2.58,5.15 0.25,9.14 -1.81,3.1 -4.74,3.55 -8.07,3.69 0.61,4.45 -0.26,6.57 -2.68,8.88 -0.96,0.91 -2.21,1.63 -3.87,2.01 -2.61,0.59 -3.18,-0.18 -5.14,-0.24 -1.25,9.09 -9.68,12.05 -16.82,6.21 -4.81,9.49 -15.78,8.44 -20.07,2.14l-0.7 -0.4 -0.03 0.86c-0.74,3.3 -3.79,4.61 -7.56,3.7l-0.73 1.7c-0.6,1.34 -2.3,2.91 -3.47,3.43 -3.46,1.53 -4.78,0.12 -7.42,-0.85 -0.72,2.6 -3.71,4.75 -7.42,4.64 -1.81,-0.05 -3.25,-0.74 -4.49,-1.64 -1.62,-1.17 -1.53,-2.01 -2.73,-3.47 -2.18,1.59 -5.68,3.34 -9.35,1.75 -2.88,-1.25 -4.97,-3.4 -5.43,-7.14 -4.45,1.3 -7.31,1.63 -10.74,-1.31 -2.58,-2.21 -3.77,-5.91 -2.91,-10.42 -4.37,0.15 -7.6,-1.49 -9.56,-3.71 -2.69,-3.03 -2.94,-5.2 -3.06,-10.05l0.34 -0.69 -0.59 -0.05c-2.6,-0.37 -3.56,-2.53 -4.21,-4.72 -5.49,1.83 -9.65,-1.96 -9.5,-7.37 -4.06,0.17 -6.62,-1.4 -7.96,-4.01 -1.75,-3.39 -1.07,-6.19 0.84,-8.85 -1.09,-0.84 -2.72,-1.21 -3.88,-2.23 -0.7,-0.62 -1.93,-2.49 -2.35,-3.87 -1.21,-4 0.8,-7.97 2.93,-9.4 -7.59,-6.08 -4.86,-15.39 3,-17.69 -1.4,-3.17 -3.4,-6.57 -1.26,-11.45 1.21,-2.76 2.69,-4.34 5.07,-5.75 0.8,-0.48 1.77,-0.66 2.68,-1.23 -1.6,-4.37 0.1,-4.83 1.57,-7.57 -4.37,-3.19 -3.11,-9.39 1.56,-11.42 -1.44,-3.3 -2.53,-5.34 -0.34,-9.12 1.54,-2.67 4.07,-3.62 8.06,-3.75 -1.52,-5.85 2.75,-12.93 11.68,-10.6 0.87,-10.29 12.18,-11.39 16.67,-6.46 0.69,-0.69 0.92,-1.66 1.47,-2.36 3.98,-5.09 11.27,-6.06 17.25,-1.48 0.65,0.5 1.26,1.5 1.89,2.25 1.18,-4.26 3.54,-5.33 8.19,-4.52 1.33,-5.94 6.94,-7.15 10.87,-4.35 0.99,-0.78 1.02,-1.7 3.01,-3.21 3.04,-2.31 8.74,-2.16 11.52,2.9l0.69 1.05c1.76,-2.28 5.76,-3.1 9.11,-1.97 3.73,1.26 4.7,4.38 5.74,7.06 6.35,-2.43 11.75,0.98 13.24,5.14 0.77,2.13 0.58,3.78 0.47,5.98z"/>
   <path class="fil1" d="M96.19 114.1c-1.65,1.54 -2.3,2.47 -1.48,5.29 -3.57,0.69 -6.29,4.72 -2.89,9.61 -1.95,1.5 -3.54,2.08 -3.79,5.48 -0.28,3.82 2.28,5.32 3.31,6.22 -0.46,1.15 -3.69,4 -2.06,8.55 1.07,2.98 2.67,4.33 5.95,5.24 -1.21,3.8 -1.58,5.68 0.6,9.24 2.01,3.28 3.56,3.06 8.09,4.05 0.01,4.49 1.91,7.47 5.71,9.27l-0.87 1.85c-4.09,-1.41 -6.24,-1.97 -9.71,2.39 -5.81,-4.02 -6.93,-2.32 -11.21,-0.41 -0.55,-2.4 -2.19,-4.15 -3.97,-5.2 -2.78,-1.64 -4.66,-1.23 -7.74,-0.47 -0.35,-5.14 -4.14,-8.75 -9.24,-9.17 1.02,-3.41 1.78,-5.75 0.24,-9.4 -1.13,-2.66 -3.07,-5.22 -5.5,-5.96 0.9,-1.83 2.35,-3.37 2.54,-6.03 0.26,-3.69 -0.88,-4.38 -1.77,-6.91 2.49,-2.39 5.94,-5.22 3.78,-11 4.83,-1 7.44,-3.75 7.15,-9.33 3.29,-0.22 6.37,-0.74 7.41,-4.96 4.6,1.52 7.65,0.81 8.97,-3.54 1.12,0.34 2.28,0.5 3.42,0.07 2.07,4.54 2.4,3.59 3.06,5.13z"/>
   <path class="fil1" d="M136.21 91.95c-0.08,0.15 -0.32,0.11 -0.41,1.44 -0.03,0.48 0.04,0.99 0.08,1.48 -1.18,-0.12 -1.32,-0.31 -2.16,0.25 -2.07,0.2 -3.4,1.32 -4.36,2.9l-0.98 1.77c-4.51,-1.79 -7.32,-0.35 -8.7,3.65 -1.47,-0.65 -1.88,-0.53 -3.45,-0.17 -0.37,-2.34 -1.42,-4.17 -2.48,-5.49 1.39,-1.73 1.66,-2.08 0.99,-4.59 2.26,-1.34 2.98,-1.28 4.06,-3.77 1.25,-2.88 -0.35,-4.19 -1.05,-6.19 1.21,-0.97 3.45,-2.04 3.61,-5.61 0.08,-1.88 -0.59,-3.63 -1.86,-4.89l-1.46 -1.32c0.77,-1.35 1.51,-1.66 2.1,-3.66 1.21,-4.12 -0.71,-8.74 -5.99,-10 0.92,-3.55 1.63,-6.55 -0.74,-9.45 -1.79,-2.17 -4.08,-3.73 -8.01,-3.73 -0.02,-5.02 -2.19,-8.01 -5.75,-9.44l1.04 -1.83c4.25,2.1 8.03,0.7 9.5,-2.36l1.1 0.76c0.46,0.36 0.58,0.42 1.23,0.74 3.14,1.54 7.21,0.9 8.51,-1.13 0.06,0.07 0.18,0.06 0.2,0.2 0.02,0.1 1.88,3.78 4.01,4.94 3.92,2.13 4.24,0.83 8.05,0.86 0.81,3.36 1.66,6.31 5.43,7.97 1.34,0.58 2.13,0.81 3.71,0.98 -0.87,5.51 -2.58,6.68 2.02,13.01 1.14,1.57 2.06,1.39 3.26,2.61 -1.06,2.01 -2.19,2.46 -2.45,5.9 -0.24,3.12 0.7,4.94 1.98,6.74 -1.3,0.71 -3.12,2.47 -3.71,3.85 -1.4,3.26 -0.84,3.92 -0.38,7.19 -3.86,0.76 -6.11,2.66 -6.95,6.38z"/>
   <path class="fil1" d="M115.75 158.84c-0.8,-0.72 -1.99,-0.55 -3.13,-0.46l-0.33 -0.36c-0.03,-0.03 -0.11,-0.15 -0.14,-0.18 -0.04,-0.05 -0.17,-0.27 -0.23,-0.36 -0.2,-4.07 -3.64,-7.14 -7.59,-7.59 0.71,-2.39 0.81,-4.79 -0.28,-6.87 -1.11,-2.1 -2.46,-2.91 -4.46,-3.99 2.22,-5.28 1.62,-4.78 -0.72,-9.09 2.41,-1.62 3.72,-3.93 2.62,-7.02 -0.51,-1.42 -0.79,-1.15 -1.44,-2.25l1.08 -1.31c0.37,-0.6 0.45,-1.35 0.49,-2.14 1.94,-0.17 3.39,0.24 5.81,-0.14 0.07,2.61 1.05,3.86 3.48,4.32 -0.42,5.16 1.93,7.75 7.04,7.44 0.01,2.79 0.97,5.14 2.96,6.19 2.53,1.33 4.68,1.26 6.93,-0.08 3.26,8.78 11.08,6.99 13.83,3.93 1.86,1.98 4.04,4.39 8.35,4.04 3.99,-0.32 5.74,-2.5 7.4,-5.02 6.1,3.49 9.01,1 12.52,-1.37l0.51 0.86c-1.64,1.44 -2.24,1.17 -3.12,3.86 -0.68,2.08 -0.43,4.18 0.58,5.85 -2.21,0.96 -3.43,1.61 -4.36,3.19 -1.21,2.06 -1.47,3.49 -1.18,6.24 -8.52,-0.77 -9.33,4.39 -10.86,7.66 -5.57,-2.24 -10.07,0.25 -12.27,3.75 -1.61,-1.23 -2.58,-3.36 -6.76,-4.41 -3.57,-0.89 -7.03,0.04 -9.44,1.66 -0.52,-0.66 -0.61,-1.22 -1.09,-1.99 -1.15,-1.84 -3.7,-4.14 -6.22,-4.36z"/>
   <path class="fil1" d="M104.29 62.25c0.78,0.74 0.32,-0.08 0.47,1.04 -1.33,6.54 2.33,8.1 5.1,10.02 -1.87,3.37 -1.72,6.33 0.68,8.9 -4.92,3.88 -2.77,8.31 -1.09,9.09 -0.37,0.73 -0.52,0.81 -0.9,1.35 -0.18,0.26 -0.22,0.34 -0.39,0.6l-0.46 0.69c-2.4,-0.34 -3.16,-0.43 -5.58,-0.07 -1.8,-2.63 0.14,-1.28 -3.57,-3.07 0.35,-4.11 -1.05,-6.82 -4.71,-7.29 -0.2,-0.09 0.25,-0.23 -0.88,-0.3 -0.48,-0.03 -0.86,0.08 -1.34,0.15 -0.02,-1.24 0.19,-0.89 -0.37,-1.71 -0.22,-2.18 -1.74,-3.83 -3.29,-4.6 -2.74,-1.36 -4.02,-0.79 -6.45,0.22 -1.49,-5.24 -5.97,-7.43 -10.38,-5.96 -1.77,0.59 -2.24,1.48 -3.47,1.99 -0.93,-0.72 -0.63,-0.81 -1.35,-1.51 -1.67,-1.61 -4.3,-2.51 -6.87,-2.38 -3.58,0.18 -6.16,2.53 -7.25,5.01 -4.92,-2.01 -7.06,-2.71 -11.92,0.8 -0.63,0.45 -0.16,0.21 -0.83,0.45l-0.54 -0.67c0.06,-0.08 5.82,-3.46 2.67,-9.72 3.03,-2.06 6.15,-3.15 5.42,-9.62 2.84,0.37 5.31,-0.01 7.34,-1.51 1.88,-1.39 2.6,-3.03 3.43,-6.02 6.35,1.72 9.4,-0.14 12.53,-3.68l0.68 0.68c1.54,1.83 3.7,3.12 6.17,3.69 4,0.91 6.25,-0.36 9.23,-1.63 1.56,2.08 1.64,4.72 6.77,6.26 1.53,0.46 2.85,0.12 4.18,0.44 0.7,4.31 2.9,7.67 6.98,8.35z"/>
   <path class="fil1" d="M165.21 117.47c-0.68,0.91 -0.48,1.37 -0.41,2.65l-1.2 -0.15c-7.91,0.6 -8.24,4.22 -9.95,6.16 -5.79,-2.09 -7.97,-0.74 -11.49,2.26 -3.88,-2.95 -5.64,-4.82 -11.77,-1.12 -1.45,-3.51 -3.62,-4.35 -8.04,-3.97 -0.28,-4.16 -2.66,-6.19 -6.98,-5.88 -0.55,-0.29 -0.44,-0.13 -0.78,-0.43 -0.28,-1.38 -1.02,-1.96 -1.87,-2.62 1.11,-1.29 2.21,-2.27 2.92,-4.56 3.05,0.74 3.27,0.8 5.34,-1.12 0.81,1.24 3.37,2.19 5.69,1.74 2.77,-0.54 2.8,-1.99 4.33,-3.74 2.41,0.91 3.86,1.87 6.8,0.43 2.08,-1.02 3.32,-2.69 3.52,-5.74 4.34,-0.11 5,0.67 8.23,-1.88 1.85,-1.45 2.89,-4.78 2.29,-8.1 1.2,-0.53 5.33,-0.6 7.46,-4.47 2.18,-3.96 1.1,-6.06 -0.2,-9.71 3.83,-1.15 6.15,-5.88 5.29,-10.69 -0.31,-1.75 -0.67,-1.06 0.49,-1.52 0.77,2.65 0.17,2.96 1.97,5.01 1.15,1.31 2.73,1.99 5.03,2.2 0.27,2.94 -0.95,7.03 5.57,9.54 -2.82,1.78 -3.9,10.33 1.15,13.01 -3.72,3.47 -5.78,7.43 -3.12,12.93 -4.88,0.9 -10.04,4.25 -10.26,9.76z"/>
   <path class="fil1" d="M78.97 85.04c1.38,2.94 3.74,4.88 7.96,3.88 0.56,2.79 0.45,3.02 2.23,4.65 1.68,1.53 3.09,1.37 5.4,1.27 0.6,1.41 0.35,1.52 1.16,2.51 -0.87,1.19 -1.98,2.76 -2.57,4.83 -2.64,-0.2 -3.39,0.12 -4.83,1.33 -1.85,-1.95 -5.62,-2.73 -8.21,-0.25 -1.32,1.26 -0.72,0.75 -1.63,2.32 -2.63,-0.73 -4,-2.11 -7.16,-0.28 -2.12,1.23 -2.74,2.79 -3.42,5.74 -4.58,-1.17 -8.6,0.9 -10.16,5 -0.67,1.77 -0.36,3.14 -0.14,5.01 -3.08,0.2 -6.1,1.67 -7.53,4.37 -2.13,4 -1.06,5.71 0.12,9.37 -0.58,0.58 -6.91,3.68 -5.29,10.98 0.32,1.42 0.6,1.07 -0.24,1.43 -1.12,-1.87 -0.47,-6.71 -7.26,-7.12 0.63,-6.67 -1.84,-7.42 -5.22,-9.56 1.96,-4.16 4.45,-7.14 -1.23,-13.13 4.92,-4.85 4.76,-7.03 2.96,-12.78 6.91,-1.29 10.57,-5.3 10.59,-12.41 3.66,-0.37 7.67,0.98 11.16,-6.17 1.54,1.04 4.35,1.44 6.51,0.95 3.07,-0.7 3.29,-1.68 4.98,-3.25 3.61,3.31 6.79,4.85 11.81,1.31z"/>
   <path class="fil3" d="M115.75 158.84l-3.78 -0.18 -0.05 -1.17c0.05,0.1 0.19,0.31 0.23,0.36 0.03,0.03 0.11,0.15 0.14,0.18l0.33 0.36c1.14,-0.09 2.33,-0.26 3.13,0.46z"/>
   <path class="fil4" d="M133.71 95.12c0.85,-0.56 0.98,-0.37 2.16,-0.25 -0.03,-0.49 -0.11,-1 -0.08,-1.48 0.09,-1.33 0.33,-1.28 0.41,-1.44l-0.03 3.1 -2.47 0.06z"/>
   <path class="fil5" d="M181.1 66.55l-2.47 -0.17 -0.09 -2.09c0.59,0.82 0.37,0.58 0.26,1.79 1.24,-0.06 1.42,-0.28 2.3,0.47z"/>
   <path class="fil4" d="M93.83 83.5l-2.55 0.12 -0.04 -1.98c0.56,0.82 0.35,0.48 0.37,1.71 0.48,-0.08 0.86,-0.18 1.34,-0.15 1.13,0.07 0.68,0.2 0.88,0.3z"/>
   <path class="fil6" d="M163.59 119.96l1.2 0.15c-0.07,-1.28 -0.26,-1.74 0.41,-2.65l-0.13 2.91 -1.49 -0.42z"/>
   <path class="fil7" d="M154.7 39.9l-2.7 0 0.41 -0.86c-0.13,1 -0.08,0.18 0.25,0.53 1.25,0 1.13,-0.15 2.03,0.32z"/>
   <path class="fil8" d="M119.52 182.17l0.03 -0.86 0.7 0.4c-0.47,0.28 -0.29,-0.01 -0.73,0.46z"/>
   <path class="fil9" d="M115.37 117.41l-0.75 0.3 -0.03 -0.73c0.34,0.3 0.23,0.13 0.78,0.43z"/>
   <path class="fil3" d="M104.76 63.29c-0.15,-1.12 0.32,-0.3 -0.47,-1.04l0.82 0.22 -0.35 0.82z"/>
   <polygon class="fil10" points="44.65,158.79 44.41,158.05 45,158.1 "/>
  </g>
 </g>
</svg>
